{"title":"The Hangover Part III TS FULL LINE XViD - JUSTiCE","uid":8542007,"size":1536582244,"categoryP":"video","categoryS":"movies","magnet":"?xt=urn:btih:79b2d13da3ff5969214d1442b3c6c90a9f0db54a&amp;dn=The+Hangover+Part+III+TS+FULL+LINE+XViD+-+JUSTiCE&amp;tr=udp%3A%2F%2Ftracker.openbittorrent.com%3A80&amp;tr=udp%3A%2F%2Fopen.demonii.com%3A1337&amp;tr=udp%3A%2F%2Ftracker.coppersurfer.tk%3A6969&amp;tr=udp%3A%2F%2Fexodus.desync.com%3A6969","seeders":1,"leechers":1,"uploader":"xxxlavalxxx","files":5,"time":1370418228,"description":"\n\n &lt;a href=&quot;\nhttp://www.imdb.com/title/tt1951261/&quot; rel=&quot;nofollow&quot; target=&quot;_NEW&quot;&gt;\nhttp://www.imdb.com/title/tt1951261/&lt;/a&gt;\n\n\nWhen one of their own is kidnapped by an angry gangster, the Wolf Pack must track down Mr. Chow, who has escaped from prison and is on the lam. \n\n\n\nDirector:\n Todd Phillips \n\nWriters:\n Todd Phillips, Craig Mazin\n\nStars:\n Bradley Cooper, Ed Helms, Zach Galifianakis \n\nGenres:\n  Comedy \n\nCountry:\n USA \n\nLanguage:\n English \n\n\n\n\n\n The Hangover Part III TS FULL LINE XViD - JUSTiCE\n\n SOURCE : video - DVDR / Youtube\n         audio - MiLLENiUM / a friend\n &lt;a href=&quot;\nhttp://www.imdb.com/title/tt1951261/&quot; rel=&quot;nofollow&quot; target=&quot;_NEW&quot;&gt;\nhttp://www.imdb.com/title/tt1951261/&lt;/a&gt;\n\n Video and audio both cleaned and given justice.\n Check sample and see.....\n\n\n Heres another take on this flick for anyone that wants it...\n The main bulk of the video came from a DVDR we were kindly given ( thxs ).\n The video was nice but was at a angle,interlaced,and lacked some life.\n\n So first thing was to make a script with tivtc to fix the interlace issues and drop \n that into vdub,from there used the quad filter to pull the video level and resized it.\n Then fixed up the brightness,contrast,colouring etc....\n For the ending &quot; the after credit scene &quot; opted to use a youtube video ...this is lower Q but\n complete.\n Needed to fix up the ending as that was also cammed at an angle and was washed out.\n\n Now the audio ....the sync work goes to millenium :) However did drop it into adobe and remastered the\n audio to my liking.\n Now the after credit scene came with cam audio but i had some different line,so needed to cut that and sync\n it to the video to make it a full line copy.\n\n Will be honest and say video is dull in parts and sometimes has that &quot;dirty&quot; look to it....but fixing some\n of the issues creates more issues eg glares etc so i balanced it the best i could.\n Check samples of light and darker scenes to see what i mean.\n\n\n\n Video\n ID                               : 0\n Format                           : MPEG-4 Visual\n Format profile                   : Advanced Simple@L5\n Format settings, BVOP            : 2\n Format settings, QPel            : No\n Format settings, GMC             : No warppoints\n Format settings, Matrix          : Default (MPEG)\n Muxing mode                      : Packed bitstream\n Codec ID                         : XVID\n Codec ID/Hint                    : XviD\n Duration                         : 1h 35mn\n Bit rate                         : 1 949 Kbps\n Width                            : 720 pixels\n Height                           : 304 pixels\n Display aspect ratio             : 2.35:1\n Frame rate                       : 29.970 fps\n Color space                      : YUV\n Chroma subsampling               : 4:2:0\n Bit depth                        : 8 bits\n Scan type                        : Progressive\n Compression mode                 : Lossy\n Bits/(Pixel*Frame)               : 0.297\n Stream size                      : 1.31 GiB (93%)\n Writing library                  : XviD 64\n\n Audio\n ID                               : 1\n Format                           : MPEG Audio\n Format version                   : Version 1\n Format profile                   : Layer 3\n Mode                             : Joint stereo\n Mode extension                   : MS Stereo\n Codec ID                         : 55\n Codec ID/Hint                    : MP3\n Duration                         : 1h 35mn\n Bit rate mode                    : Constant\n Bit rate                         : 128 Kbps\n Channel(s)                       : 2 channels\n Sampling rate                    : 48.0 KHz\n Compression mode                 : Lossy\n Stream size                      : 87.9 MiB (6%)\n Alignment                        : Split accross interleaves\n Interleave, duration             : 33 ms (1.00 video frame)\n Interleave, preload duration     : 500 ms\n\n\n\n\n    &lt;a href=&quot;\thttp://addpix.net/viewer.php?file=89784679967336905411.jpg&quot; rel=&quot;nofollow&quot; target=&quot;_NEW&quot;&gt;\thttp://addpix.net/viewer.php?file=89784679967336905411.jpg&lt;/a&gt;\n    &lt;a href=&quot;\thttp://addpix.net/viewer.php?file=46127302662477694921.jpg&quot; rel=&quot;nofollow&quot; target=&quot;_NEW&quot;&gt;\thttp://addpix.net/viewer.php?file=46127302662477694921.jpg&lt;/a&gt;\n    &lt;a href=&quot;\thttp://addpix.net/viewer.php?file=96811951913188052039.jpg&quot; rel=&quot;nofollow&quot; target=&quot;_NEW&quot;&gt;\thttp://addpix.net/viewer.php?file=96811951913188052039.jpg&lt;/a&gt;\n    &lt;a href=&quot;\thttp://addpix.net/viewer.php?file=10063594894736350249.jpg&quot; rel=&quot;nofollow&quot; target=&quot;_NEW&quot;&gt;\thttp://addpix.net/viewer.php?file=10063594894736350249.jpg&lt;/a&gt;\n    &lt;a href=&quot;\thttp://addpix.net/viewer.php?file=01708867067662741737.jpg&quot; rel=&quot;nofollow&quot; target=&quot;_NEW&quot;&gt;\thttp://addpix.net/viewer.php?file=01708867067662741737.jpg&lt;/a&gt;\n    &lt;a href=&quot;\thttp://addpix.net/viewer.php?file=31727103837969759959.jpg&quot; rel=&quot;nofollow&quot; target=&quot;_NEW&quot;&gt;\thttp://addpix.net/viewer.php?file=31727103837969759959.jpg&lt;/a&gt;","torrent":{"xt":"urn:btih:79b2d13da3ff5969214d1442b3c6c90a9f0db54a","amp;dn":"The+Hangover+Part+III+TS+FULL+LINE+XViD+-+JUSTiCE","amp;tr":["udp%3A%2F%2Ftracker.openbittorrent.com%3A80","udp%3A%2F%2Fopen.demonii.com%3A1337","udp%3A%2F%2Ftracker.coppersurfer.tk%3A6969","udp%3A%2F%2Fexodus.desync.com%3A6969"],"infoHash":"79b2d13da3ff5969214d1442b3c6c90a9f0db54a","infoHashBuffer":{"type":"Buffer","data":[121,178,209,61,163,255,89,105,33,77,20,66,179,198,201,10,159,13,181,74]},"announce":[],"urlList":[]}}